<svg width="384" height="64" viewBox="0 0 384 64" fill="none" xmlns="http://www.w3.org/2000/svg">
<g clip-path="url(#clip0_355_1691)">
<path fill-rule="evenodd" clip-rule="evenodd" d="M30.918 55.7607H39.1223V63.9999H30.918V55.7607ZM32.5731 57.0536C32.5481 57.2664 32.5655 58.7564 32.5655 59.1056C32.5651 59.853 32.5339 60.2535 32.8009 60.9002C33.1403 61.7207 33.9248 62.737 35.0086 62.737C36.0587 62.737 36.9076 61.7098 37.2219 60.9054C37.4927 60.2127 37.4639 59.8977 37.4643 59.1056C37.4643 58.4699 37.504 57.6898 37.4591 57.0716C37.3613 57.1424 37.1198 57.5263 37.0234 57.6589C36.8546 57.8912 36.6727 58.087 36.6727 58.3012C36.6746 58.9631 36.6741 59.6249 36.6741 60.2863C36.6736 60.9562 36.7124 61.5207 36.3352 61.9512C35.5615 62.834 34.3105 62.7674 33.6559 61.906C33.2948 61.4314 33.3563 60.8916 33.3581 60.2155C33.36 59.5827 33.3983 58.851 33.3648 58.2304C33.3577 58.1017 33.2584 58.0043 33.1908 57.9102C33.1195 57.8109 33.058 57.7259 32.9833 57.6223C32.8387 57.4227 32.714 57.2408 32.5731 57.0536ZM33.4645 58.1516L34.6947 58.1559C34.6947 58.7555 34.6947 59.3437 34.6947 59.9324C34.6943 60.2236 34.6976 60.5149 34.6971 60.8061C34.6971 61.0993 34.698 61.3967 35.0086 61.4029C35.3706 61.4095 35.338 61.0242 35.3375 60.8536C35.3375 60.5543 35.3375 60.255 35.338 59.9561C35.338 59.3556 35.3351 58.7545 35.3347 58.154C35.5941 58.154 35.8536 58.154 36.1131 58.154C36.7204 58.154 36.4529 58.2984 37.0333 57.5035C37.1165 57.3895 37.3074 57.1377 37.3462 57.0374C37.1543 57.0298 35.407 57.0041 35.2794 57.0621C35.1399 57.1258 35.0468 57.2959 35.0194 57.5159C34.9367 56.9034 34.4613 57.0355 34.1162 57.0355C33.6455 57.0355 33.1606 57.0241 32.6917 57.0369C32.7281 57.1448 33.3496 57.9786 33.4645 58.1516Z" fill="black"/>
<path fill-rule="evenodd" clip-rule="evenodd" d="M4.24658 35.8777C6.18908 49.1129 16.377 59.6483 29.396 62.0377V61.0072C16.9347 58.6396 7.18869 48.5522 5.26462 35.8777H4.24658ZM5.34733 26.1605C7.76482 11.8829 20.1287 1.01249 35.0198 1.01249C49.9113 1.01249 62.2748 11.8829 64.6923 26.1605H65.7136C63.2853 11.3208 50.4686 0 35.0198 0C19.571 0 6.75434 11.3208 4.32598 26.1605H5.34733ZM64.7755 35.8777C62.8509 48.5522 53.1049 58.6396 40.6436 61.0072V62.0377C53.6626 59.6483 63.851 49.1129 65.7935 35.8777H64.7755Z" fill="black"/>
<path fill-rule="evenodd" clip-rule="evenodd" d="M7.19336 35.8776C9.07111 47.503 17.983 56.7566 29.396 59.079V58.1264C18.4962 55.8287 9.99178 46.987 8.13389 35.8776H7.19336ZM8.23503 26.1603C10.6289 13.4797 21.7096 3.89117 35.0197 3.89117C48.3303 3.89117 59.4106 13.4797 61.8049 26.1603H62.7492C60.3431 12.9613 48.8441 2.9585 35.0197 2.9585C21.1954 2.9585 9.69639 12.9613 7.29025 26.1603H8.23503ZM61.9056 35.8776C60.0477 46.987 51.5433 55.8282 40.6435 58.1264V59.079C52.057 56.7566 60.9689 47.503 62.8461 35.8776H61.9056Z" fill="black"/>
<path d="M1.42164 29.1118V32.9257H0.885209V29.586H0.0288086V29.1118H1.42164ZM3.48135 29.0681C3.99084 29.0681 4.38359 29.2335 4.66008 29.5641C4.93657 29.8944 5.07457 30.3633 5.07457 30.97C5.07457 31.3948 4.99943 31.7573 4.8496 32.0567C4.69978 32.3565 4.49041 32.5836 4.22101 32.738C3.95209 32.8924 3.63826 32.9694 3.28048 32.9694C3.09663 32.9694 2.92318 32.9504 2.76059 32.9124C2.59754 32.8739 2.45669 32.8188 2.33759 32.7461L2.54366 32.3208C2.72798 32.441 2.97186 32.5009 3.27528 32.5009C3.66898 32.5009 3.97713 32.3783 4.19927 32.1332C4.4214 31.888 4.53247 31.5312 4.53247 31.0622V30.9263C4.42424 31.0898 4.27442 31.2143 4.083 31.2993C3.89112 31.3848 3.67607 31.4276 3.43787 31.4276C3.18879 31.4276 2.96524 31.3801 2.76863 31.286C2.57154 31.1915 2.41794 31.056 2.30782 30.8798C2.19769 30.7035 2.1424 30.5011 2.1424 30.2726C2.1424 30.0326 2.201 29.8221 2.31869 29.6402C2.4359 29.4587 2.59612 29.318 2.7984 29.2183C3.00069 29.1185 3.22849 29.0681 3.48135 29.0681ZM3.53003 30.9862C3.6997 30.9862 3.85142 30.9534 3.98517 30.8878C4.11892 30.8228 4.2229 30.7339 4.2971 30.6208C4.37083 30.5087 4.40817 30.3833 4.40817 30.245C4.40817 30.1105 4.37272 29.988 4.3023 29.8773C4.23188 29.7666 4.12885 29.6777 3.9932 29.6102C3.85803 29.5432 3.6945 29.5095 3.50309 29.5095C3.25354 29.5095 3.0522 29.577 2.8986 29.7114C2.745 29.8454 2.66843 30.0255 2.66843 30.2507C2.66843 30.4759 2.74594 30.6546 2.90144 30.7871C3.05646 30.9197 3.2663 30.9862 3.53003 30.9862ZM6.99344 30.714C7.3654 30.7501 7.64897 30.8655 7.84417 31.0598C8.03936 31.2542 8.13672 31.5017 8.13672 31.8034C8.13672 32.0215 8.08284 32.2182 7.97414 32.3945C7.86591 32.5707 7.70427 32.7104 7.48923 32.814C7.27418 32.9176 7.0114 32.9694 6.70041 32.9694C6.4296 32.9694 6.16965 32.9285 5.9201 32.8468C5.67056 32.7651 5.46638 32.6515 5.30758 32.5061L5.55713 32.0757C5.6871 32.1992 5.85346 32.2985 6.05575 32.3726C6.25803 32.4472 6.47308 32.4848 6.70041 32.4848C6.98257 32.4848 7.20187 32.4244 7.35925 32.3047C7.51617 32.1849 7.59462 32.0196 7.59462 31.8091C7.59462 31.5982 7.51711 31.4347 7.36162 31.3183C7.20659 31.2024 6.9717 31.1439 6.65693 31.1439H6.3535V30.7629L7.30774 29.586H5.48103V29.1118H7.98501V29.4824L6.99344 30.714ZM10.1908 32.9694C9.89112 32.9694 9.62455 32.8924 9.39155 32.738C9.15854 32.5836 8.97517 32.3593 8.84141 32.0652C8.70766 31.7706 8.64102 31.4219 8.64102 31.019C8.64102 30.6156 8.70766 30.2669 8.84141 29.9728C8.97517 29.6787 9.15854 29.4544 9.39155 29.3C9.62455 29.1456 9.89112 29.0681 10.1908 29.0681C10.4871 29.0681 10.7518 29.1456 10.9848 29.3C11.2178 29.4544 11.4012 29.6787 11.5349 29.9728C11.6687 30.2669 11.7353 30.6156 11.7353 31.019C11.7353 31.4219 11.6687 31.7706 11.5349 32.0652C11.4012 32.3593 11.2178 32.5836 10.9848 32.738C10.7518 32.8924 10.4871 32.9694 10.1908 32.9694ZM10.1908 32.4848C10.4942 32.4848 10.7376 32.3593 10.92 32.1084C11.1025 31.8581 11.1937 31.4946 11.1937 31.019C11.1937 30.5429 11.1025 30.1799 10.92 29.929C10.7376 29.6787 10.4942 29.5532 10.1908 29.5532C9.88355 29.5532 9.63921 29.6787 9.45677 29.929C9.27386 30.1799 9.18265 30.5429 9.18265 31.019C9.18265 31.4946 9.27386 31.8581 9.45677 32.1084C9.63921 32.3593 9.88355 32.4848 10.1908 32.4848Z" fill="black"/>
<path d="M61.1717 32.452V32.9257H58.4456V32.5551L59.9901 31.057C60.1782 30.8755 60.3044 30.7182 60.3696 30.5857C60.4349 30.4531 60.467 30.3196 60.467 30.1851C60.467 29.9856 60.3975 29.8302 60.2586 29.7195C60.1191 29.6083 59.9197 29.5532 59.6598 29.5532C59.2405 29.5532 58.9173 29.691 58.6895 29.9671L58.3208 29.6459C58.4692 29.4644 58.663 29.3223 58.9035 29.2206C59.1436 29.119 59.4121 29.0681 59.7084 29.0681C60.1059 29.0681 60.4221 29.1636 60.657 29.3541C60.8919 29.5451 61.0091 29.8036 61.0091 30.131C61.0091 30.3343 60.9656 30.5268 60.8791 30.7083C60.7922 30.8898 60.6282 31.0969 60.3857 31.3292L59.2259 32.452H61.1717ZM63.1501 32.9694C62.85 32.9694 62.5834 32.8924 62.3504 32.738C62.1174 32.5836 61.934 32.3593 61.8003 32.0652C61.6665 31.7706 61.5999 31.4219 61.5999 31.019C61.5999 30.6156 61.6665 30.2669 61.8003 29.9728C61.934 29.6787 62.1174 29.4544 62.3504 29.3C62.5834 29.1456 62.85 29.0681 63.1501 29.0681C63.446 29.0681 63.7111 29.1456 63.9441 29.3C64.1771 29.4544 64.3605 29.6787 64.4943 29.9728C64.6275 30.2669 64.6946 30.6156 64.6946 31.019C64.6946 31.4219 64.6275 31.7706 64.4943 32.0652C64.3605 32.3593 64.1771 32.5836 63.9441 32.738C63.7111 32.8924 63.446 32.9694 63.1501 32.9694ZM63.1501 32.4848C63.4535 32.4848 63.6965 32.3593 63.8789 32.1084C64.0613 31.8581 64.1525 31.4946 64.1525 31.019C64.1525 30.5429 64.0613 30.1799 63.8789 29.929C63.6965 29.6787 63.4535 29.5532 63.1501 29.5532C62.8429 29.5532 62.5981 29.6787 62.4156 29.929C62.2332 30.1799 62.142 30.5429 62.142 31.019C62.142 31.4946 62.2332 31.8581 62.4156 32.1084C62.5981 32.3593 62.8429 32.4848 63.1501 32.4848ZM67.865 32.452V32.9257H65.1389V32.5551L66.6835 31.057C66.8716 30.8755 66.9978 30.7182 67.063 30.5857C67.1282 30.4531 67.1603 30.3196 67.1603 30.1851C67.1603 29.9856 67.0909 29.8302 66.9519 29.7195C66.813 29.6083 66.613 29.5532 66.3531 29.5532C65.9339 29.5532 65.6106 29.691 65.3828 29.9671L65.0141 29.6459C65.1625 29.4644 65.3568 29.3223 65.5969 29.2206C65.837 29.119 66.1054 29.0681 66.4018 29.0681C66.7993 29.0681 67.1154 29.1636 67.3503 29.3541C67.5852 29.5451 67.7024 29.8036 67.7024 30.131C67.7024 30.3343 67.659 30.5268 67.5725 30.7083C67.486 30.8898 67.3215 31.0969 67.0795 31.3292L65.9192 32.452H67.865ZM69.3935 30.6318C69.9356 30.6318 70.334 30.7349 70.5888 30.9396C70.8435 31.1449 70.9707 31.4257 70.9707 31.7816C70.9707 32.0068 70.9173 32.2092 70.8109 32.3892C70.7041 32.5688 70.5434 32.7104 70.3284 32.814C70.1133 32.9176 69.8486 32.9694 69.5343 32.9694C69.2668 32.9694 69.0088 32.9285 68.7592 32.8468C68.5102 32.7651 68.3041 32.6515 68.1415 32.5061L68.3911 32.0757C68.521 32.1992 68.6874 32.2985 68.8897 32.3726C69.092 32.4472 69.3051 32.4848 69.5292 32.4848C69.8146 32.4848 70.0358 32.4235 70.1927 32.3018C70.3501 32.1802 70.4286 32.0139 70.4286 31.8034C70.4286 31.5744 70.3421 31.401 70.1686 31.2832C69.9952 31.1648 69.6988 31.1059 69.2796 31.1059H68.418L68.6184 29.1118H70.7594V29.586H69.0735L68.971 30.6318H69.3935Z" fill="black"/>
<path d="M12.1006 21.5998L12.3256 21.1038L14.2435 21.9823L12.9868 19.6447L13.1994 19.1757L15.901 20.4129L15.676 20.9094L13.7619 20.0328L15.0148 22.3681L14.8017 22.8375L12.1006 21.5998ZM14.5337 17.0723C14.6721 16.8542 14.8291 16.6879 15.0035 16.5725C15.1779 16.457 15.3593 16.3991 15.5475 16.3991C15.7356 16.3991 15.9213 16.458 16.1047 16.5758C16.2852 16.6927 16.4157 16.8371 16.4951 17.0101C16.5745 17.183 16.5986 17.3726 16.5669 17.5802C16.5352 17.7879 16.4502 18.0007 16.3112 18.2183L15.9497 18.7856L16.6704 19.2503L16.3731 19.7164L13.8744 18.1057L14.5337 17.0723ZM15.9048 17.9865C16.0347 17.7831 16.09 17.6011 16.0716 17.4405C16.0532 17.2804 15.9643 17.1488 15.8046 17.0462C15.6453 16.9431 15.4888 16.9165 15.3362 16.9668C15.1835 17.0167 15.0422 17.1436 14.9127 17.3469L14.5644 17.8924L15.5569 18.5319L15.9048 17.9865ZM17.8657 15.589L17.5055 16.008L18.4522 16.8305L18.0973 17.2434L15.8514 15.292L16.2063 14.8796L17.1464 15.6959L17.5178 15.264L17.135 13.7987L17.5174 13.3535L17.9427 15.0692L19.7883 15.2754L19.3809 15.75L17.8657 15.589ZM20.087 11.1081L20.7067 13.7711C20.7619 14.0063 20.7662 14.2159 20.7185 14.3997C20.6712 14.5846 20.5786 14.7375 20.4406 14.8601C20.3304 14.9575 20.2009 15.0312 20.0516 15.0801L19.8668 14.6639C19.9783 14.6145 20.0625 14.5646 20.1196 14.5138C20.2529 14.395 20.3026 14.2282 20.2676 14.0125L20.2553 13.927L17.903 13.0461L18.3449 12.6541L20.1565 13.3834L19.6801 11.4687L20.087 11.1081ZM22.8718 9.86465L22.0447 10.4001L23.4006 12.5144L22.9408 12.8123L21.5853 10.6985L20.7619 11.2316L20.5091 10.8377L22.6189 9.4703L22.8718 9.86465ZM25.8545 11.2088C25.5813 11.3328 25.3081 11.3846 25.0336 11.3642C24.759 11.3437 24.5113 11.2558 24.2911 11.1005C24.0708 10.9446 23.9007 10.7337 23.7806 10.4666C23.6606 10.2001 23.6161 9.93165 23.6469 9.66225C23.6776 9.39238 23.7764 9.14721 23.9427 8.92675C24.1086 8.70629 24.3279 8.53382 24.6011 8.40982C24.8228 8.30956 25.0425 8.25635 25.2604 8.25112C25.4783 8.24542 25.6834 8.28818 25.8758 8.37798L25.6896 8.83268C25.3979 8.70914 25.1096 8.71247 24.8232 8.84218C24.638 8.92675 24.49 9.04268 24.3799 9.19092C24.2698 9.33916 24.206 9.50498 24.189 9.68743C24.1715 9.86988 24.2041 10.0528 24.2873 10.2367C24.37 10.4206 24.4848 10.5664 24.6323 10.6743C24.7802 10.7812 24.9456 10.8429 25.129 10.8577C25.3124 10.8724 25.4972 10.8377 25.6825 10.7536C25.9684 10.6234 26.1612 10.4068 26.2605 10.1027L26.7246 10.2666C26.6646 10.4714 26.5601 10.6543 26.4108 10.8159C26.2614 10.9769 26.0762 11.1081 25.8545 11.2088ZM28.0253 8.96714L27.5044 9.14721L27.9114 10.3365L27.3981 10.5142L26.4325 7.69237L26.9458 7.51468L27.3499 8.69584L27.8873 8.51007L28.289 7.05048L28.8425 6.859L28.3514 8.55711L29.844 9.66843L29.2546 9.87225L28.0253 8.96714ZM29.7291 6.70364L30.2641 6.61004L30.6243 8.69774L31.8351 6.33636L32.3404 6.24799L32.848 9.18807L32.3134 9.28167L31.9538 7.19824L30.7424 9.55582L30.2367 9.64372L29.7291 6.70364ZM33.6278 6.181L34.1709 6.17007L34.2134 8.28818L35.7646 6.13729L36.2774 6.12683L36.3378 9.11063L35.7953 9.12155L35.7523 7.00772L34.2011 9.15386L33.6883 9.16432L33.6278 6.181ZM34.9427 5.95389C34.6879 5.95911 34.4951 5.91018 34.3646 5.80802C34.2337 5.7054 34.1652 5.55336 34.1581 5.35143L34.5442 5.34382C34.549 5.44883 34.5844 5.52912 34.6506 5.58471C34.7167 5.6403 34.8122 5.66644 34.9365 5.66406C35.058 5.66168 35.153 5.63128 35.221 5.57284C35.2891 5.51487 35.3236 5.43315 35.3241 5.32767L35.7059 5.32007C35.7069 5.51915 35.6431 5.67309 35.5136 5.78237C35.3841 5.89165 35.1936 5.94866 34.9427 5.95389ZM42.8563 7.41775L42.0169 10.2804L41.4961 10.126L42.2036 7.71328L40.7271 7.27569L40.0196 9.68838L39.4993 9.53396L40.3386 6.6718L42.8563 7.41775ZM44.0469 11.1518C43.7718 11.0259 43.5506 10.852 43.3838 10.6306C43.2174 10.4091 43.1191 10.1626 43.0898 9.89126C43.0605 9.61996 43.1054 9.35294 43.225 9.08925C43.3445 8.82508 43.5156 8.61555 43.7382 8.4597C43.9613 8.30434 44.2104 8.21691 44.4864 8.19791C44.762 8.17938 45.0375 8.23259 45.313 8.35898C45.5881 8.48489 45.8088 8.65878 45.9757 8.88019C46.1425 9.1016 46.2408 9.34771 46.271 9.61759C46.3008 9.88746 46.2555 10.1554 46.1349 10.4215C46.0139 10.688 45.8424 10.8985 45.6202 11.0529C45.3981 11.2074 45.149 11.2938 44.8735 11.3124C44.5975 11.3318 44.3224 11.2777 44.0469 11.1518ZM44.2473 10.7094C44.4273 10.7921 44.6079 10.8258 44.7889 10.8102C44.9699 10.7945 45.1349 10.7327 45.2833 10.6244C45.4317 10.5156 45.547 10.3711 45.6292 10.1901C45.711 10.0091 45.7441 9.82664 45.728 9.64277C45.7119 9.45889 45.6505 9.29355 45.5432 9.14579C45.4359 8.9985 45.2922 8.88352 45.1126 8.80132C44.9321 8.71865 44.7516 8.68491 44.5705 8.70059C44.3895 8.7158 44.225 8.77804 44.0762 8.88637C43.9278 8.9947 43.8124 9.13961 43.7307 9.32063C43.6484 9.50166 43.6158 9.6841 43.6314 9.86798C43.6475 10.0519 43.7094 10.2172 43.8167 10.365C43.9235 10.5122 44.0672 10.6272 44.2473 10.7094ZM49.6896 10.9323L48.0973 13.4509L47.6393 13.1582L48.9811 11.0354L47.9933 10.4044L47.5741 11.0202C47.3392 11.3651 47.1293 11.6331 46.9455 11.8236C46.7616 12.0141 46.5835 12.1339 46.4109 12.1842C46.2389 12.2341 46.0645 12.2027 45.8877 12.0897C45.8258 12.0502 45.7488 11.9842 45.6566 11.8915L45.9459 11.5053C45.9709 11.5347 46.0031 11.5628 46.0437 11.5884C46.1893 11.6815 46.3476 11.6602 46.5182 11.5257C46.6893 11.3903 46.9001 11.1404 47.1511 10.7755L47.8463 9.7549L49.6896 10.9323ZM50.8097 11.8112L51.2034 12.1871L49.752 13.7236L52.3594 13.2908L52.7319 13.6457L50.6877 15.8099L50.2945 15.4346L51.7422 13.9009L49.138 14.3308L48.766 13.9754L50.8097 11.8112ZM54.5765 16.5701L53.973 15.7895L51.9974 17.3322L51.6618 16.8979L53.6374 15.3552L53.0367 14.5774L53.4049 14.2895L54.9447 16.2827L54.5765 16.5701ZM54.4759 20.1288L54.0874 20.3806L52.8812 18.4991L55.3757 16.8827L56.5502 18.7134L56.1612 18.9652L55.2859 17.6002L54.6375 18.0202L55.414 19.2318L55.0326 19.4784L54.2561 18.2677L53.5679 18.7134L54.4759 20.1288ZM57.2048 19.9877L56.5885 21.0392L57.7809 21.2701L58.0461 21.8602L56.3375 21.5371L55.3738 23.1625L55.1049 22.5643L55.7732 21.4097L54.4716 21.1541L54.2098 20.5712L56.0388 20.9242L56.943 19.4052L57.2048 19.9877Z" fill="black"/>
<path fill-rule="evenodd" clip-rule="evenodd" d="M21.181 21.4026C23.9766 21.2334 25.4351 23.0898 26.1124 25.2844C26.8648 27.7213 26.6923 30.6025 26.2045 33.1135C25.7669 35.3637 24.8339 37.8239 23.7861 39.4659C23.0081 40.6851 21.8252 42.1361 20.5642 42.826C20.3335 42.9519 20.0746 43.0845 19.816 43.19C19.618 43.2703 19.1969 43.3715 19.0674 43.4788C22.2647 43.7663 25.4497 43.0612 28.0601 41.4268C28.4689 41.1707 28.8172 40.9165 29.1636 40.6575C29.5517 40.3682 30.7729 39.2369 31.0745 38.8768C31.2148 38.7086 31.3609 38.5166 31.505 38.3413C33.4215 36.0084 34.7208 32.7377 34.7293 29.5344C34.7435 23.992 31.1222 20.4533 25.6204 20.4585C24.6425 20.4595 23.9624 20.5079 23.0115 20.7179C22.639 20.8001 21.3336 21.1764 21.181 21.4026Z" fill="black"/>
<path fill-rule="evenodd" clip-rule="evenodd" d="M20.2333 21.814C19.1487 22.1641 17.7525 23.4764 17.1395 24.4101C16.3488 25.6145 15.8062 26.9672 15.9471 28.8116C16.2065 32.2154 19.1127 34.2846 22.1527 33.6133C25.7631 32.816 26.4678 28.6377 24.9142 26.5899C23.001 24.0675 20.4786 24.2248 19.5608 23.4436C18.7446 22.749 20.0197 22.0891 20.2333 21.814Z" fill="black"/>
<path fill-rule="evenodd" clip-rule="evenodd" d="M45.4162 43.3768C46.1171 43.3022 47.4613 42.7197 48.0535 42.4417C49.5456 41.7414 51.0301 40.5968 51.8232 39.1249C52.3005 38.2392 52.5477 37.3094 52.5449 36.1501C52.5364 32.9791 50.6142 30.8867 48.5526 29.8661C45.283 28.2483 40.4314 28.645 36.5039 28.5961C36.5701 28.7467 37.6023 29.6499 37.797 29.8162C37.9643 29.9597 38.073 30.097 38.2332 30.2381L39.5684 31.4368C40.3728 32.1253 41.3928 33.1421 42.2463 33.8714L45.36 36.7274C46.6507 37.852 47.6347 39.6774 47.0284 41.5109C46.8275 42.1177 46.4225 42.6541 45.9484 43.0157C45.706 43.2 45.5438 43.2228 45.4162 43.3768Z" fill="black"/>
<path fill-rule="evenodd" clip-rule="evenodd" d="M39.2705 22.0796C38.9652 22.4531 38.6457 23.0223 38.3886 23.4375L36.2178 26.8879C35.955 27.2851 35.9834 27.2381 35.9923 27.8348C36.4839 27.8994 40.9908 27.8472 41.8959 27.8472C45.4104 27.8472 49.0506 28.471 51.0639 25.1641C51.9203 23.7578 52.1982 22.2298 52.1543 20.2908C51.9695 20.4813 52.0257 20.6077 51.7677 20.8476C50.4528 22.0654 48.3142 22.0492 46.5919 22.0829C44.8026 22.1181 40.6109 21.9613 39.2705 22.0796Z" fill="black"/>
<path fill-rule="evenodd" clip-rule="evenodd" d="M42.5585 43.5096C39.9217 43.5448 41.3831 42.2947 42.3217 41.2494C44.1848 39.176 43.6011 35.9489 41.1638 34.6532C36.8284 32.3489 32.7879 37.1002 35.3651 41.0907C35.9687 42.0258 36.8714 42.8264 38.1366 43.2796C39.0294 43.5989 41.7026 43.9329 42.5585 43.5096Z" fill="black"/>
</g>
<path d="M102.501 18H100.387C100.262 17.392 100.044 16.858 99.731 16.3977C99.4242 15.9375 99.0492 15.5511 98.606 15.2386C98.1685 14.9205 97.6827 14.6818 97.1486 14.5227C96.6145 14.3636 96.0577 14.2841 95.4782 14.2841C94.4213 14.2841 93.464 14.5511 92.606 15.0852C91.7537 15.6193 91.0748 16.4062 90.5691 17.446C90.0691 18.4858 89.8191 19.7614 89.8191 21.2727C89.8191 22.7841 90.0691 24.0597 90.5691 25.0994C91.0748 26.1392 91.7537 26.9261 92.606 27.4602C93.464 27.9943 94.4213 28.2614 95.4782 28.2614C96.0577 28.2614 96.6145 28.1818 97.1486 28.0227C97.6827 27.8636 98.1685 27.6278 98.606 27.3153C99.0492 26.9972 99.4242 26.608 99.731 26.1477C100.044 25.6818 100.262 25.1477 100.387 24.5455H102.501C102.342 25.4375 102.052 26.2358 101.632 26.9403C101.211 27.6449 100.688 28.2443 100.063 28.7386C99.4384 29.2273 98.7367 29.5994 97.9583 29.8551C97.1855 30.1108 96.3588 30.2386 95.4782 30.2386C93.9895 30.2386 92.6657 29.875 91.5066 29.1477C90.3475 28.4205 89.4355 27.3864 88.7708 26.0455C88.106 24.7045 87.7736 23.1136 87.7736 21.2727C87.7736 19.4318 88.106 17.8409 88.7708 16.5C89.4355 15.1591 90.3475 14.125 91.5066 13.3977C92.6657 12.6705 93.9895 12.3068 95.4782 12.3068C96.3588 12.3068 97.1855 12.4347 97.9583 12.6903C98.7367 12.946 99.4384 13.321 100.063 13.8153C100.688 14.304 101.211 14.9006 101.632 15.6051C102.052 16.304 102.342 17.1023 102.501 18ZM107.655 27.0341L113.962 16.9091H116.28V30H114.269V19.875L107.996 30H105.644V16.9091H107.655V27.0341ZM125.282 30.2727C124.055 30.2727 122.998 29.983 122.112 29.4034C121.225 28.8239 120.544 28.0256 120.066 27.0085C119.589 25.9915 119.35 24.8295 119.35 23.5227C119.35 22.1932 119.595 21.0199 120.083 20.0028C120.578 18.9801 121.265 18.1818 122.146 17.608C123.032 17.0284 124.066 16.7386 125.248 16.7386C126.169 16.7386 126.998 16.9091 127.737 17.25C128.475 17.5909 129.08 18.0682 129.552 18.6818C130.024 19.2955 130.316 20.0114 130.43 20.8295H128.419C128.265 20.233 127.924 19.7045 127.396 19.2443C126.873 18.7784 126.169 18.5455 125.282 18.5455C124.498 18.5455 123.811 18.75 123.22 19.1591C122.634 19.5625 122.177 20.1335 121.847 20.8722C121.524 21.6051 121.362 22.4659 121.362 23.4545C121.362 24.4659 121.521 25.3466 121.839 26.0966C122.163 26.8466 122.617 27.429 123.203 27.8438C123.794 28.2585 124.487 28.4659 125.282 28.4659C125.805 28.4659 126.279 28.375 126.705 28.1932C127.132 28.0114 127.492 27.75 127.788 27.4091C128.083 27.0682 128.294 26.6591 128.419 26.1818H130.43C130.316 26.9545 130.035 27.6506 129.586 28.2699C129.143 28.8835 128.555 29.3722 127.822 29.7358C127.095 30.0938 126.248 30.2727 125.282 30.2727ZM132.339 18.7841V16.9091H142.975V18.7841H138.68V30H136.669V18.7841H132.339ZM150.718 30.2727C149.457 30.2727 148.369 29.9943 147.454 29.4375C146.545 28.875 145.843 28.0909 145.349 27.0852C144.86 26.0739 144.616 24.8977 144.616 23.5568C144.616 22.2159 144.86 21.0341 145.349 20.0114C145.843 18.983 146.531 18.1818 147.411 17.608C148.298 17.0284 149.332 16.7386 150.514 16.7386C151.195 16.7386 151.869 16.8523 152.534 17.0795C153.198 17.3068 153.803 17.6761 154.349 18.1875C154.894 18.6932 155.329 19.3636 155.653 20.1989C155.977 21.0341 156.139 22.0625 156.139 23.2841V24.1364H146.048V22.3977H154.093C154.093 21.6591 153.945 21 153.65 20.4205C153.36 19.8409 152.945 19.3835 152.406 19.0483C151.872 18.7131 151.241 18.5455 150.514 18.5455C149.713 18.5455 149.019 18.7443 148.434 19.142C147.855 19.5341 147.409 20.0455 147.096 20.6761C146.784 21.3068 146.627 21.983 146.627 22.7045V23.8636C146.627 24.8523 146.798 25.6903 147.139 26.3778C147.485 27.0597 147.965 27.5795 148.579 27.9375C149.193 28.2898 149.906 28.4659 150.718 28.4659C151.247 28.4659 151.724 28.392 152.15 28.2443C152.582 28.0909 152.954 27.8636 153.267 27.5625C153.579 27.2557 153.82 26.875 153.991 26.4205L155.934 26.9659C155.73 27.625 155.386 28.2045 154.903 28.7045C154.42 29.1989 153.823 29.5852 153.113 29.8636C152.403 30.1364 151.605 30.2727 150.718 30.2727ZM166.357 27.2727L170.926 16.9091H172.835L167.176 30H165.539L159.982 16.9091H161.857L166.357 27.2727ZM161.21 16.9091V30H159.198V16.9091H161.21ZM171.505 30V16.9091H173.517V30H171.505ZM181.051 30.3068C180.221 30.3068 179.468 30.1506 178.792 29.8381C178.116 29.5199 177.579 29.0625 177.181 28.4659C176.784 27.8636 176.585 27.1364 176.585 26.2841C176.585 25.5341 176.732 24.9261 177.028 24.4602C177.323 23.9886 177.718 23.6193 178.213 23.3523C178.707 23.0852 179.252 22.8864 179.849 22.7557C180.451 22.6193 181.056 22.5114 181.664 22.4318C182.46 22.3295 183.105 22.2528 183.599 22.2017C184.099 22.1449 184.463 22.0511 184.69 21.9205C184.923 21.7898 185.039 21.5625 185.039 21.2386V21.1705C185.039 20.3295 184.809 19.6761 184.349 19.2102C183.894 18.7443 183.204 18.5114 182.278 18.5114C181.318 18.5114 180.565 18.7216 180.019 19.142C179.474 19.5625 179.09 20.0114 178.869 20.4886L176.96 19.8068C177.301 19.0114 177.755 18.392 178.323 17.9489C178.897 17.5 179.522 17.1875 180.198 17.0114C180.88 16.8295 181.551 16.7386 182.21 16.7386C182.63 16.7386 183.113 16.7898 183.659 16.892C184.21 16.9886 184.741 17.1903 185.252 17.4972C185.769 17.804 186.198 18.267 186.539 18.8864C186.88 19.5057 187.051 20.3352 187.051 21.375V30H185.039V28.2273H184.937C184.801 28.5114 184.573 28.8153 184.255 29.1392C183.937 29.4631 183.514 29.7386 182.985 29.9659C182.457 30.1932 181.812 30.3068 181.051 30.3068ZM181.357 28.5C182.153 28.5 182.823 28.3438 183.369 28.0312C183.92 27.7188 184.335 27.3153 184.613 26.821C184.897 26.3267 185.039 25.8068 185.039 25.2614V23.4205C184.954 23.5227 184.767 23.6165 184.477 23.7017C184.193 23.7812 183.863 23.8523 183.488 23.9148C183.119 23.9716 182.758 24.0227 182.406 24.0682C182.059 24.108 181.778 24.142 181.562 24.1705C181.039 24.2386 180.551 24.3494 180.096 24.5028C179.647 24.6506 179.284 24.875 179.005 25.1761C178.732 25.4716 178.596 25.875 178.596 26.3864C178.596 27.0852 178.855 27.6136 179.372 27.9716C179.894 28.3239 180.556 28.5 181.357 28.5ZM196.722 18.7841V16.9091H207.358V18.7841H203.063V30H201.051V18.7841H196.722ZM215.101 30.2727C213.84 30.2727 212.752 29.9943 211.837 29.4375C210.928 28.875 210.226 28.0909 209.732 27.0852C209.243 26.0739 208.999 24.8977 208.999 23.5568C208.999 22.2159 209.243 21.0341 209.732 20.0114C210.226 18.983 210.914 18.1818 211.794 17.608C212.681 17.0284 213.715 16.7386 214.896 16.7386C215.578 16.7386 216.252 16.8523 216.916 17.0795C217.581 17.3068 218.186 17.6761 218.732 18.1875C219.277 18.6932 219.712 19.3636 220.036 20.1989C220.36 21.0341 220.521 22.0625 220.521 23.2841V24.1364H210.431V22.3977H218.476C218.476 21.6591 218.328 21 218.033 20.4205C217.743 19.8409 217.328 19.3835 216.789 19.0483C216.254 18.7131 215.624 18.5455 214.896 18.5455C214.095 18.5455 213.402 18.7443 212.817 19.142C212.237 19.5341 211.791 20.0455 211.479 20.6761C211.166 21.3068 211.01 21.983 211.01 22.7045V23.8636C211.01 24.8523 211.181 25.6903 211.521 26.3778C211.868 27.0597 212.348 27.5795 212.962 27.9375C213.575 28.2898 214.289 28.4659 215.101 28.4659C215.629 28.4659 216.107 28.392 216.533 28.2443C216.965 28.0909 217.337 27.8636 217.649 27.5625C217.962 27.2557 218.203 26.875 218.374 26.4205L220.317 26.9659C220.112 27.625 219.769 28.2045 219.286 28.7045C218.803 29.1989 218.206 29.5852 217.496 29.8636C216.786 30.1364 215.987 30.2727 215.101 30.2727ZM228.899 30.2727C227.672 30.2727 226.615 29.983 225.729 29.4034C224.843 28.8239 224.161 28.0256 223.683 27.0085C223.206 25.9915 222.968 24.8295 222.968 23.5227C222.968 22.1932 223.212 21.0199 223.7 20.0028C224.195 18.9801 224.882 18.1818 225.763 17.608C226.649 17.0284 227.683 16.7386 228.865 16.7386C229.786 16.7386 230.615 16.9091 231.354 17.25C232.093 17.5909 232.698 18.0682 233.169 18.6818C233.641 19.2955 233.933 20.0114 234.047 20.8295H232.036C231.882 20.233 231.541 19.7045 231.013 19.2443C230.49 18.7784 229.786 18.5455 228.899 18.5455C228.115 18.5455 227.428 18.75 226.837 19.1591C226.252 19.5625 225.794 20.1335 225.465 20.8722C225.141 21.6051 224.979 22.4659 224.979 23.4545C224.979 24.4659 225.138 25.3466 225.456 26.0966C225.78 26.8466 226.235 27.429 226.82 27.8438C227.411 28.2585 228.104 28.4659 228.899 28.4659C229.422 28.4659 229.896 28.375 230.323 28.1932C230.749 28.0114 231.11 27.75 231.405 27.4091C231.7 27.0682 231.911 26.6591 232.036 26.1818H234.047C233.933 26.9545 233.652 27.6506 233.203 28.2699C232.76 28.8835 232.172 29.3722 231.439 29.7358C230.712 30.0938 229.865 30.2727 228.899 30.2727ZM235.956 18.7841V16.9091H246.593V18.7841H242.297V30H240.286V18.7841H235.956ZM251.538 27.0341L257.845 16.9091H260.163V30H258.151V19.875L251.879 30H249.526V16.9091H251.538V27.0341ZM263.847 34.9091V16.9091H265.79V18.9886H266.029C266.176 18.7614 266.381 18.4716 266.642 18.1193C266.909 17.7614 267.29 17.4432 267.784 17.1648C268.284 16.8807 268.96 16.7386 269.813 16.7386C270.915 16.7386 271.887 17.0142 272.727 17.5653C273.568 18.1165 274.225 18.8977 274.696 19.9091C275.168 20.9205 275.404 22.1136 275.404 23.4886C275.404 24.875 275.168 26.0767 274.696 27.0938C274.225 28.1051 273.571 28.8892 272.736 29.446C271.901 29.9972 270.938 30.2727 269.847 30.2727C269.006 30.2727 268.333 30.1335 267.827 29.8551C267.321 29.571 266.932 29.25 266.659 28.892C266.387 28.5284 266.176 28.2273 266.029 27.9886H265.858V34.9091H263.847ZM265.824 23.4545C265.824 24.4432 265.969 25.3153 266.259 26.071C266.548 26.821 266.972 27.4091 267.529 27.8352C268.085 28.2557 268.767 28.4659 269.574 28.4659C270.415 28.4659 271.117 28.2443 271.679 27.8011C272.247 27.3523 272.673 26.75 272.958 25.9943C273.247 25.233 273.392 24.3864 273.392 23.4545C273.392 22.5341 273.25 21.7045 272.966 20.9659C272.688 20.2216 272.264 19.6335 271.696 19.2017C271.134 18.7642 270.426 18.5455 269.574 18.5455C268.756 18.5455 268.068 18.7528 267.512 19.1676C266.955 19.5767 266.534 20.1506 266.25 20.8892C265.966 21.6222 265.824 22.4773 265.824 23.4545ZM283.79 30.2727C282.608 30.2727 281.571 29.9915 280.679 29.429C279.793 28.8665 279.1 28.0795 278.6 27.0682C278.105 26.0568 277.858 24.875 277.858 23.5227C277.858 22.1591 278.105 20.9687 278.6 19.9517C279.1 18.9347 279.793 18.1449 280.679 17.5824C281.571 17.0199 282.608 16.7386 283.79 16.7386C284.972 16.7386 286.006 17.0199 286.892 17.5824C287.784 18.1449 288.477 18.9347 288.972 19.9517C289.472 20.9687 289.722 22.1591 289.722 23.5227C289.722 24.875 289.472 26.0568 288.972 27.0682C288.477 28.0795 287.784 28.8665 286.892 29.429C286.006 29.9915 284.972 30.2727 283.79 30.2727ZM283.79 28.4659C284.688 28.4659 285.426 28.2358 286.006 27.7756C286.585 27.3153 287.014 26.7102 287.293 25.9602C287.571 25.2102 287.71 24.3977 287.71 23.5227C287.71 22.6477 287.571 21.8324 287.293 21.0767C287.014 20.321 286.585 19.7102 286.006 19.2443C285.426 18.7784 284.688 18.5455 283.79 18.5455C282.892 18.5455 282.154 18.7784 281.574 19.2443C280.994 19.7102 280.566 20.321 280.287 21.0767C280.009 21.8324 279.869 22.6477 279.869 23.5227C279.869 24.3977 280.009 25.2102 280.287 25.9602C280.566 26.7102 280.994 27.3153 281.574 27.7756C282.154 28.2358 282.892 28.4659 283.79 28.4659ZM292.792 30V16.9091H298.144C299.553 16.9091 300.673 17.2273 301.502 17.8636C302.332 18.5 302.747 19.3409 302.747 20.3864C302.747 21.1818 302.511 21.7983 302.039 22.2358C301.568 22.6676 300.963 22.9602 300.224 23.1136C300.707 23.1818 301.176 23.3523 301.63 23.625C302.09 23.8977 302.471 24.2727 302.772 24.75C303.073 25.2216 303.224 25.8011 303.224 26.4886C303.224 27.1591 303.053 27.7585 302.713 28.2869C302.372 28.8153 301.883 29.233 301.247 29.5398C300.61 29.8466 299.849 30 298.963 30H292.792ZM294.701 28.1591H298.963C299.656 28.1591 300.198 27.9943 300.59 27.6648C300.982 27.3352 301.178 26.8864 301.178 26.3182C301.178 25.642 300.982 25.1108 300.59 24.7244C300.198 24.3324 299.656 24.1364 298.963 24.1364H294.701V28.1591ZM294.701 22.3977H298.144C298.684 22.3977 299.147 22.3239 299.534 22.1761C299.92 22.0227 300.215 21.8068 300.42 21.5284C300.63 21.2443 300.735 20.9091 300.735 20.5227C300.735 19.9716 300.505 19.5398 300.045 19.2273C299.585 18.9091 298.951 18.75 298.144 18.75H294.701V22.3977ZM310.121 30.3068C309.291 30.3068 308.539 30.1506 307.862 29.8381C307.186 29.5199 306.649 29.0625 306.252 28.4659C305.854 27.8636 305.655 27.1364 305.655 26.2841C305.655 25.5341 305.803 24.9261 306.098 24.4602C306.394 23.9886 306.789 23.6193 307.283 23.3523C307.777 23.0852 308.323 22.8864 308.919 22.7557C309.521 22.6193 310.127 22.5114 310.735 22.4318C311.53 22.3295 312.175 22.2528 312.669 22.2017C313.169 22.1449 313.533 22.0511 313.76 21.9205C313.993 21.7898 314.11 21.5625 314.11 21.2386V21.1705C314.11 20.3295 313.879 19.6761 313.419 19.2102C312.965 18.7443 312.274 18.5114 311.348 18.5114C310.388 18.5114 309.635 18.7216 309.09 19.142C308.544 19.5625 308.161 20.0114 307.939 20.4886L306.03 19.8068C306.371 19.0114 306.825 18.392 307.394 17.9489C307.968 17.5 308.593 17.1875 309.269 17.0114C309.95 16.8295 310.621 16.7386 311.28 16.7386C311.7 16.7386 312.183 16.7898 312.729 16.892C313.28 16.9886 313.811 17.1903 314.323 17.4972C314.84 17.804 315.269 18.267 315.61 18.8864C315.95 19.5057 316.121 20.3352 316.121 21.375V30H314.11V28.2273H314.007C313.871 28.5114 313.644 28.8153 313.325 29.1392C313.007 29.4631 312.584 29.7386 312.056 29.9659C311.527 30.1932 310.882 30.3068 310.121 30.3068ZM310.428 28.5C311.223 28.5 311.894 28.3438 312.439 28.0312C312.99 27.7188 313.405 27.3153 313.683 26.821C313.968 26.3267 314.11 25.8068 314.11 25.2614V23.4205C314.024 23.5227 313.837 23.6165 313.547 23.7017C313.263 23.7812 312.933 23.8523 312.558 23.9148C312.189 23.9716 311.828 24.0227 311.476 24.0682C311.129 24.108 310.848 24.142 310.632 24.1705C310.11 24.2386 309.621 24.3494 309.166 24.5028C308.718 24.6506 308.354 24.875 308.075 25.1761C307.803 25.4716 307.666 25.875 307.666 26.3864C307.666 27.0852 307.925 27.6136 308.442 27.9716C308.965 28.3239 309.627 28.5 310.428 28.5ZM328.553 22.5341V24.4091H321.326V22.5341H328.553ZM321.803 16.9091V30H319.792V16.9091H321.803ZM330.088 16.9091V30H328.076V16.9091H330.088ZM335.772 27.0341L342.079 16.9091H344.397V30H342.386V19.875L336.113 30H333.761V16.9091H335.772V27.0341ZM355.956 30V18.75H352.479C351.695 18.75 351.078 18.9318 350.629 19.2955C350.181 19.6591 349.956 20.1591 349.956 20.7955C349.956 21.4205 350.158 21.9119 350.561 22.2699C350.97 22.6278 351.53 22.8068 352.24 22.8068H356.468V24.6818H352.24C351.354 24.6818 350.59 24.5256 349.948 24.2131C349.306 23.9006 348.811 23.4545 348.465 22.875C348.118 22.2898 347.945 21.5966 347.945 20.7955C347.945 19.9886 348.127 19.2955 348.49 18.7159C348.854 18.1364 349.374 17.6903 350.05 17.3778C350.732 17.0653 351.541 16.9091 352.479 16.9091H357.865V30H355.956ZM347.229 30L350.945 23.4886H353.127L349.411 30H347.229ZM88.4554 41.5455H90.535V55.2841H90.7054L100.251 41.5455H102.296V59H100.183V45.2955H100.012L90.5009 59H88.4554V41.5455ZM106.253 63.9091V45.9091H108.196V47.9886H108.435C108.583 47.7614 108.787 47.4716 109.048 47.1193C109.316 46.7614 109.696 46.4432 110.191 46.1648C110.691 45.8807 111.367 45.7386 112.219 45.7386C113.321 45.7386 114.293 46.0142 115.134 46.5653C115.975 47.1165 116.631 47.8977 117.102 48.9091C117.574 49.9205 117.81 51.1136 117.81 52.4886C117.81 53.875 117.574 55.0767 117.102 56.0938C116.631 57.1051 115.977 57.8892 115.142 58.446C114.307 58.9972 113.344 59.2727 112.253 59.2727C111.412 59.2727 110.739 59.1335 110.233 58.8551C109.727 58.571 109.338 58.25 109.066 57.892C108.793 57.5284 108.583 57.2273 108.435 56.9886H108.264V63.9091H106.253ZM108.23 52.4545C108.23 53.4432 108.375 54.3153 108.665 55.071C108.955 55.821 109.378 56.4091 109.935 56.8352C110.492 57.2557 111.173 57.4659 111.98 57.4659C112.821 57.4659 113.523 57.2443 114.085 56.8011C114.654 56.3523 115.08 55.75 115.364 54.9943C115.654 54.233 115.798 53.3864 115.798 52.4545C115.798 51.5341 115.656 50.7045 115.372 49.9659C115.094 49.2216 114.671 48.6335 114.102 48.2017C113.54 47.7642 112.833 47.5455 111.98 47.5455C111.162 47.5455 110.475 47.7528 109.918 48.1676C109.361 48.5767 108.941 49.1506 108.656 49.8892C108.372 50.6222 108.23 51.4773 108.23 52.4545ZM121.151 59V41.5455H123.264V49.3182H132.571V41.5455H134.685V59H132.571V51.1932H123.264V59H121.151ZM138.916 41.5455H140.996V55.2841H141.166L150.712 41.5455H152.757V59H150.644V45.2955H150.473L140.962 59H138.916V41.5455ZM156.032 43.4205V41.5455H169.123V43.4205H163.634V59H161.521V43.4205H156.032ZM173.306 59.2386V57.2614H174.396C174.817 57.2614 175.169 57.179 175.453 57.0142C175.743 56.8494 175.982 56.6364 176.169 56.375C176.362 56.1136 176.521 55.8409 176.646 55.5568L176.919 54.9091L170.885 41.5455H173.169L177.976 52.3864L182.374 41.5455H184.624L178.59 56.1705C178.351 56.7159 178.078 57.2216 177.771 57.6875C177.47 58.1534 177.058 58.5284 176.536 58.8125C176.019 59.0966 175.317 59.2386 174.431 59.2386H173.306Z" fill="black"/>
<defs>
<clipPath id="clip0_355_1691">
<rect width="71" height="64" fill="white"/>
</clipPath>
</defs>
</svg>
